<svg xmlns="http://www.w3.org/2000/svg" width="600" height="200"><rect width="600" height="200" x="0" y="0" fill="#FFFFFF" id="backgorund"/><g id="viz"><g id="mac" transform="translate(0,0)"><g transform="translate(50,20)"><g class="bars"><rect id="mac - express" x="19.285714285714306" y="102.4442" height="57.555800000000005" width="45.80357142857142" fill="#1f77b4"/><rect id="mac - express-files" x="84.37500000000001" y="119.84291999999999" height="40.15708000000001" width="45.80357142857142" fill="#2ca02c"/><rect id="mac - express-fixed" x="149.46428571428572" y="104.44587999999999" height="55.55412000000001" width="45.80357142857142" fill="#ff7f0e"/><rect id="mac - polka" x="344.7321428571429" y="1.0544400000000032" height="158.94556" width="45.80357142857142" fill="#1f77b4"/><rect id="mac - polka-files" x="409.82142857142856" y="70.35552000000001" height="89.64447999999999" width="45.80357142857142" fill="#2ca02c"/><rect id="mac - polka-fixed" x="474.9107142857142" y="3.186920000000004" height="156.81307999999999" width="45.80357142857142" fill="#ff7f0e"/><rect id="mac - fastify" x="214.55357142857142" y="2.9327199999999998" height="157.06728" width="45.80357142857142" fill="#1f77b4" opacity="0.2"/><rect id="mac - fastify-files" x="279.6428571428571" y="66.91560000000001" height="93.08439999999999" width="45.80357142857142" fill="#2ca02c" opacity="0.2"/></g><g id="xAxis" transform="translate(0,160)" fill="none" font-size="10" font-family="sans-serif" text-anchor="middle"><path class="domain" stroke="currentColor" d="M0,0H540"/><g class="tick" opacity="1" transform="translate(42.187500000000014,0)"><line stroke="currentColor" y2="6"/><text fill="currentColor" y="9" dy="0.71em">express</text></g><g class="tick" opacity="1" transform="translate(107.27678571428572,0)"><line stroke="currentColor" y2="6"/><text fill="currentColor" y="9" dy="0.71em">express-files</text></g><g class="tick" opacity="1" transform="translate(172.36607142857144,0)"><line stroke="currentColor" y2="6"/><text fill="currentColor" y="9" dy="0.71em">express-fixed</text></g><g class="tick" opacity="1" transform="translate(237.45535714285714,0)"><line stroke="currentColor" y2="6"/><text fill="currentColor" y="9" dy="0.71em">fastify</text></g><g class="tick" opacity="1" transform="translate(302.54464285714283,0)"><line stroke="currentColor" y2="6"/><text fill="currentColor" y="9" dy="0.71em">fastify-files</text></g><g class="tick" opacity="1" transform="translate(367.6339285714286,0)"><line stroke="currentColor" y2="6"/><text fill="currentColor" y="9" dy="0.71em">polka</text></g><g class="tick" opacity="1" transform="translate(432.7232142857143,0)"><line stroke="currentColor" y2="6"/><text fill="currentColor" y="9" dy="0.71em">polka-files</text></g><g class="tick" opacity="1" transform="translate(497.81249999999994,0)"><line stroke="currentColor" y2="6"/><text fill="currentColor" y="9" dy="0.71em">polka-fixed</text></g><text x="540" y="-4" text-anchor="end" style="font-family: Arial, sans-serif; font-size: 12px; fill: rgb(123, 123, 123); font-weight: bold;">server</text></g><g id="yAxis" fill="none" font-size="10" font-family="sans-serif" text-anchor="end"><path class="domain" stroke="currentColor" d="M-6,160H0V0H-6"/><g class="tick" opacity="1" transform="translate(0,160)"><line stroke="currentColor" x2="-6"/><text fill="currentColor" x="-9" dy="0.32em">0</text></g><g class="tick" opacity="1" transform="translate(0,140)"><line stroke="currentColor" x2="-6"/><text fill="currentColor" x="-9" dy="0.32em">5,000</text></g><g class="tick" opacity="1" transform="translate(0,120)"><line stroke="currentColor" x2="-6"/><text fill="currentColor" x="-9" dy="0.32em">10,000</text></g><g class="tick" opacity="1" transform="translate(0,100)"><line stroke="currentColor" x2="-6"/><text fill="currentColor" x="-9" dy="0.32em">15,000</text></g><g class="tick" opacity="1" transform="translate(0,80)"><line stroke="currentColor" x2="-6"/><text fill="currentColor" x="-9" dy="0.32em">20,000</text></g><g class="tick" opacity="1" transform="translate(0,60)"><line stroke="currentColor" x2="-6"/><text fill="currentColor" x="-9" dy="0.32em">25,000</text></g><g class="tick" opacity="1" transform="translate(0,40)"><line stroke="currentColor" x2="-6"/><text fill="currentColor" x="-9" dy="0.32em">30,000</text></g><g class="tick" opacity="1" transform="translate(0,20)"><line stroke="currentColor" x2="-6"/><text fill="currentColor" x="-9" dy="0.32em">35,000</text></g><g class="tick" opacity="1" transform="translate(0,0)"><line stroke="currentColor" x2="-6"/><text fill="currentColor" x="-9" dy="0.32em">40,000</text></g><text x="4" text-anchor="start" dominant-baseline="hanging" style="font-family: Arial, sans-serif; font-size: 12px; fill: rgb(123, 123, 123); font-weight: bold;">rps [sum]</text></g></g><text y="4" x="4" style="font-family: Arial, sans-serif; font-size: 12px; fill: black; font-weight: bold; dominant-baseline: hanging;">mac</text></g></g></svg>
