<svg xmlns="http://www.w3.org/2000/svg" width="600" height="200"><rect width="600" height="200" x="0" y="0" fill="#FFFFFF" id="backgorund"/><g id="viz"><g transform="translate(0,0)"><g transform="translate(50,20)"><g class="bars"><rect id="undefined - express" x="19.285714285714306" y="102.4442" height="57.555800000000005" width="67.5" fill="#1f77b4"/><rect id="undefined - express-files" x="106.07142857142858" y="119.84291999999999" height="40.15708000000001" width="67.5" fill="#2ca02c"/><rect id="undefined - polka" x="366.42857142857144" y="1.0544400000000032" height="158.94556" width="67.5" fill="#1f77b4"/><rect id="undefined - polka-files" x="453.21428571428567" y="70.35552000000001" height="89.64447999999999" width="67.5" fill="#2ca02c"/><rect id="undefined - fastify" x="192.85714285714286" y="2.9327199999999998" height="157.06728" width="67.5" fill="#1f77b4"/><rect id="undefined - fastify-files" x="279.6428571428571" y="66.91560000000001" height="93.08439999999999" width="67.5" fill="#2ca02c"/></g><g id="xAxis" transform="translate(0,160)" fill="none" font-size="10" font-family="sans-serif" text-anchor="middle"><path class="domain" stroke="currentColor" d="M0,0H540"/><g class="tick" opacity="1" transform="translate(53.035714285714306,0)"><line stroke="currentColor" y2="6"/><text fill="currentColor" y="9" dy="0.71em">express</text></g><g class="tick" opacity="1" transform="translate(139.82142857142858,0)"><line stroke="currentColor" y2="6"/><text fill="currentColor" y="9" dy="0.71em">express-files</text></g><g class="tick" opacity="1" transform="translate(226.60714285714286,0)"><line stroke="currentColor" y2="6"/><text fill="currentColor" y="9" dy="0.71em">fastify</text></g><g class="tick" opacity="1" transform="translate(313.3928571428571,0)"><line stroke="currentColor" y2="6"/><text fill="currentColor" y="9" dy="0.71em">fastify-files</text></g><g class="tick" opacity="1" transform="translate(400.17857142857144,0)"><line stroke="currentColor" y2="6"/><text fill="currentColor" y="9" dy="0.71em">polka</text></g><g class="tick" opacity="1" transform="translate(486.96428571428567,0)"><line stroke="currentColor" y2="6"/><text fill="currentColor" y="9" dy="0.71em">polka-files</text></g><text x="540" y="-4" text-anchor="end" style="font-family: Arial, sans-serif; font-size: 12px; fill: rgb(123, 123, 123); font-weight: bold;">server</text></g><g id="yAxis" fill="none" font-size="10" font-family="sans-serif" text-anchor="end"><path class="domain" stroke="currentColor" d="M-6,160H0V0H-6"/><g class="tick" opacity="1" transform="translate(0,160)"><line stroke="currentColor" x2="-6"/><text fill="currentColor" x="-9" dy="0.32em">0</text></g><g class="tick" opacity="1" transform="translate(0,140)"><line stroke="currentColor" x2="-6"/><text fill="currentColor" x="-9" dy="0.32em">5,000</text></g><g class="tick" opacity="1" transform="translate(0,120)"><line stroke="currentColor" x2="-6"/><text fill="currentColor" x="-9" dy="0.32em">10,000</text></g><g class="tick" opacity="1" transform="translate(0,100)"><line stroke="currentColor" x2="-6"/><text fill="currentColor" x="-9" dy="0.32em">15,000</text></g><g class="tick" opacity="1" transform="translate(0,80)"><line stroke="currentColor" x2="-6"/><text fill="currentColor" x="-9" dy="0.32em">20,000</text></g><g class="tick" opacity="1" transform="translate(0,60)"><line stroke="currentColor" x2="-6"/><text fill="currentColor" x="-9" dy="0.32em">25,000</text></g><g class="tick" opacity="1" transform="translate(0,40)"><line stroke="currentColor" x2="-6"/><text fill="currentColor" x="-9" dy="0.32em">30,000</text></g><g class="tick" opacity="1" transform="translate(0,20)"><line stroke="currentColor" x2="-6"/><text fill="currentColor" x="-9" dy="0.32em">35,000</text></g><g class="tick" opacity="1" transform="translate(0,0)"><line stroke="currentColor" x2="-6"/><text fill="currentColor" x="-9" dy="0.32em">40,000</text></g><text x="4" text-anchor="start" dominant-baseline="hanging" style="font-family: Arial, sans-serif; font-size: 12px; fill: rgb(123, 123, 123); font-weight: bold;">rps [sum]</text></g></g><text y="4" x="4" style="font-family: Arial, sans-serif; font-size: 12px; fill: black; font-weight: bold; dominant-baseline: hanging;"/></g></g></svg>